<svg xmlns="http://www.w3.org/2000/svg" viewBox="0 0 500 500">
  <path d="M488.3 252.1c0-77.8-38.1-146.6-96.6-189V39l-17.2 12.8C339.5 31 298.7 19 255.1 19c-43.7 0-84.7 12.1-119.7 33L118 39v24.6c-58.2 42.4-96 111-96 188.5 0 77.2 37.5 145.6 95.3 188v25.1l17.8-13.2c35.1 21.1 76.1 33.3 120 33.3 43.4 0 84.1-11.9 118.9-32.6l16.9 12.6v-23.6c59-42.4 97.4-111.5 97.4-189.6zm-142.4 15.2v19h18V391c-4.4 3.5-9 6.7-13.7 9.7l-96.4-73.5-.3.4-94.8 72.3c-5-3.3-9.8-6.8-14.5-10.5V286.3h20v-19h-63v19h16v76C93 332.1 78.6 293.8 78.6 252.1c0-42.1 14.7-80.7 39.3-111V218h-16v19h63v-19h-20V114.3c4.5-3.6 9.3-7 14.1-10.2l95.1 72.5.3.4 96-73.2c4.8 3.1 9.5 6.5 14 10V218h-18v19h63v-19h-18v-77.7c25 30.4 39.9 69.4 39.9 111.8 0 42.8-15.3 82.1-40.6 112.6v-78.5h18v-19h-62.8zm-22 147.3c-21.1 9-44.4 13.9-68.8 13.9-25 0-48.7-5.2-70.3-14.6l69.1-52.7 70 53.4zm-179.6-4.4c.2.1.4.3.6.4l-.6.4v-.8zm.7-316.9l.2.2c-.1.1-.2.1-.2.2v-.4zm40.3-3.2c21.4-9.2 45-14.4 69.8-14.4 24.6 0 48 5 69.2 14.1l-69.7 53.1-69.3-52.8zm179.3 3.1s0-.1 0 0v-.1.1zM357 64.9l-17.7 13.5c-25.4-12.3-54-19.3-84.2-19.3-30.4 0-59.2 7-84.7 19.6l-17.7-13.5C183.1 48.5 218 39 255.1 39c36.9 0 71.6 9.4 101.9 25.9zM42 252.1c0-65.5 29.5-124 76-163.1v27.3c-34.5 34.9-55.9 82.8-55.9 135.8 0 52.6 21.1 100.3 55.2 135.1v27.4c-46-39-75.3-97.3-75.3-162.5zm110.3 186.7l17.7-13.5c25.7 12.7 54.6 19.8 85.2 19.8 30 0 58.4-6.9 83.8-19.1l17.7 13.5c-30.2 16.4-64.7 25.7-101.5 25.7-37.4 0-72.4-9.5-102.9-26.4zm238.6-22.4v-27.1c35.3-35 57.2-83.5 57.2-137.1 0-53.3-21.6-101.5-56.5-136.4V88.5c46.8 39.1 76.6 97.9 76.6 163.7 0 66-30 125.1-77.3 164.2z"/>
  <path d="M188.3 211.1h21.4v84.8h-21.4v18.9H250v-18.9h-21.4v-84.8H250v-18.9h-61.7zM302.3 250c-6.4 0-12.1 2.7-16.1 7v-7h-18.9v64.8h18.9v-32.4c0-5.2 4.2-9.4 9.5-9.4s9.5 4.2 9.5 9.4v32.4h18.9v-43.2c0-12-9.7-21.6-21.8-21.6z"/>
</svg>
