<svg viewBox="0 0 860 92" xmlns="http://www.w3.org/2000/svg">
<mask id="path-1-outside-1" maskUnits="userSpaceOnUse" x="0.478516" y="0.722656" width="860" height="91" fill="black">
<rect fill="white" x="0.478516" y="0.722656" width="860" height="91"/>
<path d="M90.8252 85H70.7373V70.2295L72.6709 30.4834L54.6777 85H41.5723L23.5791 30.4834L25.5664 70.2295V85H5.47852V6.79688H22.3975H31.8506L48.125 58.6816L64.3994 6.79688H90.8252V85Z"/>
<path d="M174.028 47.3486C174.028 55.1904 172.56 62.0475 169.624 67.9199C166.688 73.7565 162.606 78.2503 157.378 81.4014C152.15 84.5166 146.188 86.0742 139.492 86.0742C132.689 86.0742 126.655 84.5166 121.392 81.4014C116.164 78.2503 112.082 73.7565 109.146 67.9199C106.245 62.0475 104.795 55.1904 104.795 47.3486V44.502C104.795 36.6602 106.245 29.821 109.146 23.9844C112.082 18.112 116.164 13.6003 121.392 10.4492C126.619 7.29818 132.617 5.72266 139.385 5.72266C146.081 5.72266 152.043 7.29818 157.271 10.4492C162.534 13.6003 166.634 18.112 169.57 23.9844C172.542 29.821 174.028 36.6602 174.028 44.502V47.3486ZM153.564 44.3945C153.564 37.1615 152.329 31.6471 149.858 27.8516C147.424 24.0202 143.932 22.1045 139.385 22.1045C129.967 22.1045 125.259 29.5345 125.259 44.3945V47.3486C125.259 54.5817 126.44 60.1318 128.804 63.999C131.203 67.8304 134.766 69.7461 139.492 69.7461C144.004 69.7461 147.477 67.7946 149.912 63.8916C152.347 59.9886 153.564 54.4743 153.564 47.3486V44.3945Z"/>
<path d="M254.976 47.3486C254.976 55.1904 253.507 62.0475 250.571 67.9199C247.635 73.7565 243.553 78.2503 238.325 81.4014C233.097 84.5166 227.135 86.0742 220.439 86.0742C213.636 86.0742 207.603 84.5166 202.339 81.4014C197.111 78.2503 193.029 73.7565 190.093 67.9199C187.192 62.0475 185.742 55.1904 185.742 47.3486V44.502C185.742 36.6602 187.192 29.821 190.093 23.9844C193.029 18.112 197.111 13.6003 202.339 10.4492C207.567 7.29818 213.564 5.72266 220.332 5.72266C227.028 5.72266 232.99 7.29818 238.218 10.4492C243.481 13.6003 247.581 18.112 250.518 23.9844C253.49 29.821 254.976 36.6602 254.976 44.502V47.3486ZM234.512 44.3945C234.512 37.1615 233.276 31.6471 230.806 27.8516C228.371 24.0202 224.88 22.1045 220.332 22.1045C210.915 22.1045 206.206 29.5345 206.206 44.3945V47.3486C206.206 54.5817 207.388 60.1318 209.751 63.999C212.15 67.8304 215.713 69.7461 220.439 69.7461C224.951 69.7461 228.424 67.7946 230.859 63.8916C233.294 59.9886 234.512 54.4743 234.512 47.3486V44.3945Z"/>
<path d="M294.458 6.79688C301.476 6.79688 307.743 8.4082 313.257 11.6309C318.807 14.8535 323.14 19.3294 326.255 25.0586C329.406 30.7878 330.981 37.251 330.981 44.4482V47.4023C330.981 54.5996 329.424 61.0628 326.309 66.792C323.193 72.4854 318.896 76.9434 313.418 80.166C307.939 83.3887 301.781 85 294.941 85H277.378H268.838V6.79688H288.872H294.458ZM310.464 44.3408C310.464 37.3226 309.103 32.0231 306.382 28.4424C303.66 24.8258 299.686 23.0176 294.458 23.0176H288.872V68.833H294.941C299.919 68.833 303.75 67.0426 306.436 63.4619C309.121 59.8812 310.464 54.528 310.464 47.4023V44.3408Z"/>
<path d="M378.633 85V6.79688H398.56V85H378.633Z"/>
<path d="M462.104 85L436.001 39.5068V85H415.967V6.79688H436.001L462.051 52.2363V6.79688H482.031V85H462.104Z"/>
<path d="M619.004 6.79688L602.783 85H590.322H581.782L572.329 42.5684L563.145 85H552.563H542.144L525.869 6.79688H545.742L554.014 54.5996L563.789 6.79688H573.242H580.869L590.913 54.7607L599.185 6.79688H619.004Z"/>
<path d="M697.964 47.3486C697.964 55.1904 696.496 62.0475 693.56 67.9199C690.623 73.7565 686.541 78.2503 681.313 81.4014C676.086 84.5166 670.124 86.0742 663.428 86.0742C656.624 86.0742 650.591 84.5166 645.327 81.4014C640.099 78.2503 636.017 73.7565 633.081 67.9199C630.181 62.0475 628.73 55.1904 628.73 47.3486V44.502C628.73 36.6602 630.181 29.821 633.081 23.9844C636.017 18.112 640.099 13.6003 645.327 10.4492C650.555 7.29818 656.553 5.72266 663.32 5.72266C670.016 5.72266 675.978 7.29818 681.206 10.4492C686.47 13.6003 690.57 18.112 693.506 23.9844C696.478 29.821 697.964 36.6602 697.964 44.502V47.3486ZM677.5 44.3945C677.5 37.1615 676.265 31.6471 673.794 27.8516C671.359 24.0202 667.868 22.1045 663.32 22.1045C653.903 22.1045 649.194 29.5345 649.194 44.3945V47.3486C649.194 54.5817 650.376 60.1318 652.739 63.999C655.138 67.8304 658.701 69.7461 663.428 69.7461C667.939 69.7461 671.413 67.7946 673.848 63.8916C676.283 59.9886 677.5 54.4743 677.5 47.3486V44.3945Z"/>
<path d="M778.911 47.3486C778.911 55.1904 777.443 62.0475 774.507 67.9199C771.571 73.7565 767.489 78.2503 762.261 81.4014C757.033 84.5166 751.071 86.0742 744.375 86.0742C737.572 86.0742 731.538 84.5166 726.274 81.4014C721.047 78.2503 716.965 73.7565 714.028 67.9199C711.128 62.0475 709.678 55.1904 709.678 47.3486V44.502C709.678 36.6602 711.128 29.821 714.028 23.9844C716.965 18.112 721.047 13.6003 726.274 10.4492C731.502 7.29818 737.5 5.72266 744.268 5.72266C750.964 5.72266 756.925 7.29818 762.153 10.4492C767.417 13.6003 771.517 18.112 774.453 23.9844C777.425 29.821 778.911 36.6602 778.911 44.502V47.3486ZM758.447 44.3945C758.447 37.1615 757.212 31.6471 754.741 27.8516C752.306 24.0202 748.815 22.1045 744.268 22.1045C734.85 22.1045 730.142 29.5345 730.142 44.3945V47.3486C730.142 54.5817 731.323 60.1318 733.687 63.999C736.086 67.8304 739.648 69.7461 744.375 69.7461C748.887 69.7461 752.36 67.7946 754.795 63.8916C757.23 59.9886 758.447 54.4743 758.447 47.3486V44.3945Z"/>
<path d="M818.394 6.79688C825.412 6.79688 831.678 8.4082 837.192 11.6309C842.743 14.8535 847.075 19.3294 850.19 25.0586C853.341 30.7878 854.917 37.251 854.917 44.4482V47.4023C854.917 54.5996 853.359 61.0628 850.244 66.792C847.129 72.4854 842.832 76.9434 837.354 80.166C831.875 83.3887 825.716 85 818.877 85H801.313H792.773V6.79688H812.808H818.394ZM834.399 44.3408C834.399 37.3226 833.039 32.0231 830.317 28.4424C827.596 24.8258 823.621 23.0176 818.394 23.0176H812.808V68.833H818.877C823.854 68.833 827.686 67.0426 830.371 63.4619C833.057 59.8812 834.399 54.528 834.399 47.4023V44.3408Z"/>
</mask>
<path d="M90.8252 85H70.7373V70.2295L72.6709 30.4834L54.6777 85H41.5723L23.5791 30.4834L25.5664 70.2295V85H5.47852V6.79688H22.3975H31.8506L48.125 58.6816L64.3994 6.79688H90.8252V85Z" stroke="#FEFEFE" stroke-width="10" mask="url(#path-1-outside-1)"/>
<path d="M174.028 47.3486C174.028 55.1904 172.56 62.0475 169.624 67.9199C166.688 73.7565 162.606 78.2503 157.378 81.4014C152.15 84.5166 146.188 86.0742 139.492 86.0742C132.689 86.0742 126.655 84.5166 121.392 81.4014C116.164 78.2503 112.082 73.7565 109.146 67.9199C106.245 62.0475 104.795 55.1904 104.795 47.3486V44.502C104.795 36.6602 106.245 29.821 109.146 23.9844C112.082 18.112 116.164 13.6003 121.392 10.4492C126.619 7.29818 132.617 5.72266 139.385 5.72266C146.081 5.72266 152.043 7.29818 157.271 10.4492C162.534 13.6003 166.634 18.112 169.57 23.9844C172.542 29.821 174.028 36.6602 174.028 44.502V47.3486ZM153.564 44.3945C153.564 37.1615 152.329 31.6471 149.858 27.8516C147.424 24.0202 143.932 22.1045 139.385 22.1045C129.967 22.1045 125.259 29.5345 125.259 44.3945V47.3486C125.259 54.5817 126.44 60.1318 128.804 63.999C131.203 67.8304 134.766 69.7461 139.492 69.7461C144.004 69.7461 147.477 67.7946 149.912 63.8916C152.347 59.9886 153.564 54.4743 153.564 47.3486V44.3945Z" stroke="#FEFEFE" stroke-width="10" mask="url(#path-1-outside-1)"/>
<path d="M254.976 47.3486C254.976 55.1904 253.507 62.0475 250.571 67.9199C247.635 73.7565 243.553 78.2503 238.325 81.4014C233.097 84.5166 227.135 86.0742 220.439 86.0742C213.636 86.0742 207.603 84.5166 202.339 81.4014C197.111 78.2503 193.029 73.7565 190.093 67.9199C187.192 62.0475 185.742 55.1904 185.742 47.3486V44.502C185.742 36.6602 187.192 29.821 190.093 23.9844C193.029 18.112 197.111 13.6003 202.339 10.4492C207.567 7.29818 213.564 5.72266 220.332 5.72266C227.028 5.72266 232.99 7.29818 238.218 10.4492C243.481 13.6003 247.581 18.112 250.518 23.9844C253.49 29.821 254.976 36.6602 254.976 44.502V47.3486ZM234.512 44.3945C234.512 37.1615 233.276 31.6471 230.806 27.8516C228.371 24.0202 224.88 22.1045 220.332 22.1045C210.915 22.1045 206.206 29.5345 206.206 44.3945V47.3486C206.206 54.5817 207.388 60.1318 209.751 63.999C212.15 67.8304 215.713 69.7461 220.439 69.7461C224.951 69.7461 228.424 67.7946 230.859 63.8916C233.294 59.9886 234.512 54.4743 234.512 47.3486V44.3945Z" stroke="#FEFEFE" stroke-width="10" mask="url(#path-1-outside-1)"/>
<path d="M294.458 6.79688C301.476 6.79688 307.743 8.4082 313.257 11.6309C318.807 14.8535 323.14 19.3294 326.255 25.0586C329.406 30.7878 330.981 37.251 330.981 44.4482V47.4023C330.981 54.5996 329.424 61.0628 326.309 66.792C323.193 72.4854 318.896 76.9434 313.418 80.166C307.939 83.3887 301.781 85 294.941 85H277.378H268.838V6.79688H288.872H294.458ZM310.464 44.3408C310.464 37.3226 309.103 32.0231 306.382 28.4424C303.66 24.8258 299.686 23.0176 294.458 23.0176H288.872V68.833H294.941C299.919 68.833 303.75 67.0426 306.436 63.4619C309.121 59.8812 310.464 54.528 310.464 47.4023V44.3408Z" stroke="#FEFEFE" stroke-width="10" mask="url(#path-1-outside-1)"/>
<path d="M378.633 85V6.79688H398.56V85H378.633Z" stroke="#FEFEFE" stroke-width="10" mask="url(#path-1-outside-1)"/>
<path d="M462.104 85L436.001 39.5068V85H415.967V6.79688H436.001L462.051 52.2363V6.79688H482.031V85H462.104Z" stroke="#FEFEFE" stroke-width="10" mask="url(#path-1-outside-1)"/>
<path d="M619.004 6.79688L602.783 85H590.322H581.782L572.329 42.5684L563.145 85H552.563H542.144L525.869 6.79688H545.742L554.014 54.5996L563.789 6.79688H573.242H580.869L590.913 54.7607L599.185 6.79688H619.004Z" stroke="#FEFEFE" stroke-width="10" mask="url(#path-1-outside-1)"/>
<path d="M697.964 47.3486C697.964 55.1904 696.496 62.0475 693.56 67.9199C690.623 73.7565 686.541 78.2503 681.313 81.4014C676.086 84.5166 670.124 86.0742 663.428 86.0742C656.624 86.0742 650.591 84.5166 645.327 81.4014C640.099 78.2503 636.017 73.7565 633.081 67.9199C630.181 62.0475 628.73 55.1904 628.73 47.3486V44.502C628.73 36.6602 630.181 29.821 633.081 23.9844C636.017 18.112 640.099 13.6003 645.327 10.4492C650.555 7.29818 656.553 5.72266 663.32 5.72266C670.016 5.72266 675.978 7.29818 681.206 10.4492C686.47 13.6003 690.57 18.112 693.506 23.9844C696.478 29.821 697.964 36.6602 697.964 44.502V47.3486ZM677.5 44.3945C677.5 37.1615 676.265 31.6471 673.794 27.8516C671.359 24.0202 667.868 22.1045 663.32 22.1045C653.903 22.1045 649.194 29.5345 649.194 44.3945V47.3486C649.194 54.5817 650.376 60.1318 652.739 63.999C655.138 67.8304 658.701 69.7461 663.428 69.7461C667.939 69.7461 671.413 67.7946 673.848 63.8916C676.283 59.9886 677.5 54.4743 677.5 47.3486V44.3945Z" stroke="#FEFEFE" stroke-width="10" mask="url(#path-1-outside-1)"/>
<path d="M778.911 47.3486C778.911 55.1904 777.443 62.0475 774.507 67.9199C771.571 73.7565 767.489 78.2503 762.261 81.4014C757.033 84.5166 751.071 86.0742 744.375 86.0742C737.572 86.0742 731.538 84.5166 726.274 81.4014C721.047 78.2503 716.965 73.7565 714.028 67.9199C711.128 62.0475 709.678 55.1904 709.678 47.3486V44.502C709.678 36.6602 711.128 29.821 714.028 23.9844C716.965 18.112 721.047 13.6003 726.274 10.4492C731.502 7.29818 737.5 5.72266 744.268 5.72266C750.964 5.72266 756.925 7.29818 762.153 10.4492C767.417 13.6003 771.517 18.112 774.453 23.9844C777.425 29.821 778.911 36.6602 778.911 44.502V47.3486ZM758.447 44.3945C758.447 37.1615 757.212 31.6471 754.741 27.8516C752.306 24.0202 748.815 22.1045 744.268 22.1045C734.85 22.1045 730.142 29.5345 730.142 44.3945V47.3486C730.142 54.5817 731.323 60.1318 733.687 63.999C736.086 67.8304 739.648 69.7461 744.375 69.7461C748.887 69.7461 752.36 67.7946 754.795 63.8916C757.23 59.9886 758.447 54.4743 758.447 47.3486V44.3945Z" stroke="#FEFEFE" stroke-width="10" mask="url(#path-1-outside-1)"/>
<path d="M818.394 6.79688C825.412 6.79688 831.678 8.4082 837.192 11.6309C842.743 14.8535 847.075 19.3294 850.19 25.0586C853.341 30.7878 854.917 37.251 854.917 44.4482V47.4023C854.917 54.5996 853.359 61.0628 850.244 66.792C847.129 72.4854 842.832 76.9434 837.354 80.166C831.875 83.3887 825.716 85 818.877 85H801.313H792.773V6.79688H812.808H818.394ZM834.399 44.3408C834.399 37.3226 833.039 32.0231 830.317 28.4424C827.596 24.8258 823.621 23.0176 818.394 23.0176H812.808V68.833H818.877C823.854 68.833 827.686 67.0426 830.371 63.4619C833.057 59.8812 834.399 54.528 834.399 47.4023V44.3408Z" stroke="#FEFEFE" stroke-width="10" mask="url(#path-1-outside-1)"/>
</svg>
