<svg xmlns="http://www.w3.org/2000/svg" viewBox="0 0 500 500">
  <path d="M488.8 252.1c0-2-.2-4-.2-6s-.5-4-.6-5.9c-.1-2 .1-4-.1-6s-1-3.9-1.2-5.9c-.2-2-.2-4-.4-5.9-.3-2-.5-3.9-.8-5.9-.3-2-.5-3.9-.8-5.9-.4-2-.8-3.9-1.2-5.8-.4-1.9-1.1-3.8-1.6-5.7-.5-1.9-.5-4-1-5.9-.5-1.9-1.3-3.8-1.9-5.7-.6-1.9-.8-3.9-1.4-5.8l-1.8-5.7c-.6-1.9-1.7-3.6-2.4-5.5s-1.3-3.7-2.1-5.6c-.7-1.8-1.7-3.6-2.5-5.4-.8-1.8-.8-4-1.7-5.8-.8-1.8-2.3-3.3-3.2-5.1-.9-1.8-1.8-3.5-2.7-5.3-.9-1.8-1.7-3.6-2.6-5.3-1-1.7-1.6-3.7-2.6-5.4-1-1.7-2.1-3.4-3.1-5.1-1.1-1.7-2.2-3.3-3.3-5-1.1-1.7-2.3-3.3-3.4-4.9-1.1-1.6-2.8-2.8-4-4.4-1.2-1.6-2.1-3.4-3.4-4.9-1.2-1.6-2.5-3.1-3.8-4.6-1.3-1.5-2.4-3.2-3.7-4.7-1.3-1.5-2.8-2.9-4.1-4.3l-3.9-4.5c-1.4-1.4-2.7-2.9-4.1-4.3-1.4-1.4-3.1-2.6-4.5-3.9-1.4-1.4-3.2-2.4-4.6-3.7-1.5-1.3-2.9-2.7-4.4-4-1.5-1.3-2.8-2.9-4.3-4.1-1.5-1.2-3.2-2.4-4.8-3.6-1.6-1.2-3.4-2.4-5-3.6-.7-2.9.6-3.1.6-6.1v-6c0-3-.7-3-.7-6s3-4.7.5-6.3c-2.2-1.5-2.6 1.5-4.8 3.1-2.1 1.6-2.1 1.7-4.3 3.3-2.2 1.6-2.2 1.5-4.3 3.1-2.2 1.6-1.6 2.4-4.1 3.4-1.7-1-3.5-1.6-5.2-2.5-1.7-1-3.3-2.2-5.1-3.1-1.8-.9-3.7-1.5-5.5-2.4-1.8-.9-3.5-1.9-5.3-2.7-1.8-.8-3.5-2-5.3-2.8-1.8-.8-3.9-1-5.7-1.8-1.8-.7-3.6-1.6-5.5-2.3-1.9-.7-3.7-1.4-5.6-2-1.9-.6-3.6-1.9-5.5-2.5-1.9-.6-3.8-1.1-5.7-1.6-1.9-.6-3.8-1-5.8-1.6-1.9-.5-3.9-.6-5.9-1.1-1.9-.5-3.9-.9-5.8-1.3s-3.9-1-5.8-1.3c-2-.4-3.9-1-5.8-1.3-2-.3-4-.1-6-.3-2-.3-4-.1-6-.3-2-.2-3.9-1.1-5.9-1.3-2-.2-4 .3-6 .2-2-.1-3.9-.7-5.9-.8-2 0-4 .6-6 .6s-4-.4-6-.4c-2 .1-4-.3-6-.2-2 .1-4 .5-6 .6-2 .2-4 .3-6 .5s-4 .3-6 .5c-2 .3-4 .6-5.9.9-2 .3-3.9 1.2-5.8 1.5-2 .4-3.9.8-5.8 1.2-2 .4-4 .5-5.9 1-1.9.5-3.9 1-5.8 1.5s-3.8 1.1-5.8 1.6c-1.9.6-3.9.8-5.8 1.4-1.9.6-3.7 1.7-5.5 2.3-1.9.7-3.7 1.5-5.5 2.2-1.9.7-3.8 1.2-5.7 1.9-1.9.7-4 .9-5.8 1.7-1.8.8-3.4 2.2-5.2 3-1.8.8-3.6 1.8-5.4 2.7-1.8.9-3.8 1.4-5.5 2.3-1.8.9-3.5 1.9-5.2 2.9-1.7 1-3.4 2.2-5.1 3.2-2.5-.9-2.4-1.3-4.6-3-2.2-1.6-2.1-1.8-4.3-3.4-2.2-1.6-1.8-2.1-4-3.7s-2.2-4.3-4.5-2.8c-2.6 1.7 0 2.9 0 6v6.1c0 3.1.4 3.1.4 6.2s0 3.1-.6 6.1c-1.6 1.2-2.9 2.5-4.5 3.7-1.6 1.2-3.1 2.5-4.6 3.7-1.5 1.2-3 2.6-4.5 3.9-1.5 1.3-3.5 2-5 3.3-1.5 1.3-2.6 3.1-4 4.4-1.5 1.9-3.3 2.9-4.7 4.3l-4.2 4.2C85 92 84 93.8 82.7 95.2c-1.3 1.5-2.5 3.1-3.8 4.6-1.3 1.5-2.5 3-3.8 4.6-1.3 1.5-2.5 3.1-3.7 4.6-1.2 1.6-2.4 3.2-3.5 4.8-1.2 1.6-2.9 2.8-4 4.4-1.1 1.6-2.3 3.2-3.4 4.9-1.1 1.6-1.5 3.7-2.6 5.4-1.1 1.7-2.1 3.3-3.1 5-1 1.7-2 3.4-2.9 5.1-1 1.7-2.4 3.2-3.3 5-.9 1.7-1.5 3.7-2.3 5.5-.9 1.8-2.3 3.3-3.1 5.1-.8 1.8-1.3 3.8-2.1 5.6-.8 1.8-1.8 3.5-2.5 5.4-.7 1.8-1.1 3.8-1.8 5.7-.7 1.9-1.4 3.7-2.1 5.6-.6 1.9-1.6 3.6-2.2 5.5-.6 1.9-1 3.8-1.5 5.7-.5 1.9-1.4 3.7-1.9 5.6-.5 1.9-.5 4-.9 5.9-.4 1.9-.6 3.9-1 5.9-.4 1.9-.8 3.9-1.2 5.8-.3 1.9-.8 3.9-1.1 5.8-.3 2-1.2 3.8-1.5 5.8-.2 2-.1 4-.3 5.9-.2 2-.5 3.9-.7 5.9-.1 2 .1 4 0 5.9-.1 2-.9 3.9-.9 5.9 0 2 .5 4 .5 5.9 0 2 .2 4 .3 6.1.1 2-.7 4.1-.6 6.1.1 2 .7 4 .9 6 .2 2 .7 4 .9 6 .2 2 .4 4 .7 6 .3 2 .2 4.1.5 6.1s.6 4 1 6 1 3.9 1.4 5.9c.4 2 .3 4.1.7 6.1.5 2 1.1 3.9 1.6 5.9.5 2 1.6 3.7 2.2 5.7.6 1.9.6 4.1 1.2 6 .6 1.9 1.9 3.6 2.6 5.5.7 1.9 1.5 3.8 2.2 5.7.7 1.9 1.3 3.8 2.1 5.7.8 1.9.8 4.1 1.6 5.9.8 1.9 2.5 3.3 3.4 5.1.9 1.8 1.1 4 2 5.8.9 1.8 2.1 3.5 3.1 5.2 1 1.8 1.7 3.7 2.7 5.4 1 1.8 2.4 3.3 3.5 5 1.1 1.7 2.1 3.4 3.2 5.1 1.1 1.7 2.2 3.4 3.4 5 1.1 1.7 2.5 3.2 3.6 4.9 1.2 1.6 2.3 3.3 3.5 4.9 1.2 1.6 2 3.6 3.3 5.2 1.3 1.6 2.6 3.1 3.9 4.6 1.3 1.5 2.7 3 4.1 4.5 1.4 1.5 2.9 2.8 4.3 4.3s2.6 3.2 4 4.6c1.4 1.4 3 2.8 4.4 4.2 1.5 1.4 2.8 2.9 4.3 4.3s3 2.7 4.5 4.1c1.5 1.3 3.3 2.3 4.9 3.6 1.6 1.3 3 2.8 4.6 4l4.8 3.6c.7 3.1.3 3.1.3 6.2s-.6 3.1-.6 6.3c0 3.1.1 3.1.1 6.3 0 3.1-2.1 4.2.5 5.9 2.3 1.5 2-1.4 4.2-3s2.1-1.8 4.3-3.4c2.2-1.7 2.3-1.5 4.5-3.2 2.2-1.7 1.8-2.6 4.4-3.6 1.7 1 3.6 2.4 5.3 3.4 1.7 1 3.4 2 5.2 3 1.8.9 3.5 2 5.3 2.9 1.8.9 3.7 1.5 5.5 2.4 1.8.8 3.4 2.1 5.3 2.9 1.8.8 3.7 1.6 5.5 2.4 1.9.8 3.9 1 5.8 1.7s3.7 1.4 5.6 2.1c1.9.7 3.6 1.8 5.5 2.4 1.9.6 3.9 1.1 5.8 1.7 1.9.6 3.9 1 5.8 1.5s3.9.9 5.8 1.4c1.9.5 3.9.9 5.9 1.3 2 .4 3.8 1.2 5.8 1.6 2 .4 4 .3 6 .6s4 .6 6 .8c2 .3 3.9.8 5.9 1 2 .2 4-.3 6-.2 2 .2 4 .2 6 .3 2 .1 4 .4 6 .4 2 .1 4 .2 6 .2s4-.1 5.9-.2c2 0 4 .2 6 .1s3.9-.5 5.9-.7c2-.1 4-.1 5.9-.3 2-.2 3.9-.6 5.9-.8 2-.3 3.9-.5 5.9-.8 2-.3 3.9-.7 5.9-1 2-.4 3.9-.6 5.9-1 1.9-.4 3.9-.9 5.8-1.3 1.9-.5 3.9-.9 5.8-1.4 1.9-.5 3.8-1.1 5.7-1.6 1.9-.5 3.9-.9 5.8-1.5s3.5-1.9 5.4-2.6c1.9-.6 4-.6 5.9-1.3 1.9-.7 3.4-2.1 5.3-2.9 1.8-.7 3.8-1.1 5.7-1.9 1.8-.8 3.7-1.5 5.5-2.3 1.8-.8 3.3-2.2 5.1-3.1 1.8-.9 3.9-1 5.7-1.9 1.8-.9 3.5-1.9 5.2-2.9 1.7-1 3.1-1.9 4.8-2.9 2.5.9 2.5.9 4.6 2.4 2.1 1.6 2.1 1.5 4.2 3.1s1.8 2 3.9 3.6c2.1 1.6 1.9 4 4.1 2.6 2.5-1.6.7-2.5.7-5.5 0-2.9-.3-2.9-.3-5.9 0-3-.3-3-.3-5.9 0-3-.3-3 .3-5.9 1.6-1.2 3-2.4 4.6-3.6 1.6-1.2 3-2.6 4.6-3.9 1.6-1.2 3.1-2.5 4.6-3.8l4.5-3.9c1.5-1.3 3.2-2.5 4.6-3.8 1.5-1.4 3.2-2.4 4.7-3.8 1.4-1.4 2.8-2.9 4.2-4.3 1.4-1.4 2.8-2.9 4.1-4.3 1.4-1.5 2.8-2.9 4.1-4.4 1.3-1.5 1.9-3.6 3.2-5.2 1.3-1.5 3.1-2.6 4.4-4.2l3.6-4.8c1.2-1.6 2.3-3.3 3.4-4.9 1.2-1.6 2-3.5 3.1-5.2 1.1-1.7 2.1-3.4 3.2-5.1 1.1-1.7 2.2-3.3 3.2-5 1-1.7 2.5-3.2 3.5-4.9 1-1.7 1.8-3.6 2.7-5.4.9-1.8 1.8-3.5 2.7-5.3.9-1.8 1.6-3.6 2.5-5.5.8-1.8 1.4-3.7 2.2-5.5.8-1.8 1.4-3.7 2.2-5.6.7-1.8 1.6-3.6 2.3-5.5.7-1.9 1.4-3.7 2.1-5.6.7-1.9 1.4-3.7 2-5.6.6-1.9.8-3.9 1.4-5.8.6-1.9 1.9-3.6 2.4-5.5s.8-3.9 1.2-5.9c.5-1.9.2-4 .6-6 .4-1.9 1.5-3.8 1.9-5.7.4-2 .5-4 .8-5.9.3-2 .7-3.9.9-5.9.3-2 .8-3.9 1-5.9.2-2 0-4 .2-6s0-4 .1-6 .8-4 .8-6c.1-2-.1-4-.1-6 .3 0 .6.2.6.2zm-143.4 15.2c0 3.2.1 3.2.1 6.3 0 3.2.3 3.2.3 6.3 0 3.2-2.4 4.3-.2 6.6 2.1 2.2 3.2-.6 6.2-.6s3 .2 6 .2 4-2.1 6.1.1c2.1 2.2-.1 3.2-.1 6.2 0 3.1.1 3.1.1 6.2s.3 3.1.3 6.2-.5 3.1-.5 6.2.3 3.1.3 6.2-.3 3.1-.3 6.2v6.2c0 3.1.4 3.1.4 6.2s-.1 3.1-.1 6.2.2 3.1.2 6.2-.9 3.1-.9 6.2.7 3.1.7 6.2v6.2c0 3.1-.3 3.1-.3 6.2s-.4 3.1-.4 6.2v6.2c0 3.1.6 3.1 0 6.1-1.5 1.2-2.8 2.1-4.3 3.2s-2.7 2.7-4.2 3.8c-1.5 1.1-3.3 1.8-4.9 2.8-2.8-1.2-2.5-1.8-4.9-3.6-2.4-1.8-2.3-2-4.7-3.8-2.4-1.8-2.5-1.7-4.9-3.5-2.4-1.8-2.3-2-4.7-3.8-2.4-1.8-2.3-1.9-4.8-3.8-2.4-1.8-2.6-1.6-5-3.4-2.4-1.8-2.6-1.5-5-3.4-2.4-1.8-2.4-1.9-4.8-3.8-2.4-1.8-2.1-2.2-4.5-4-2.4-1.8-2.5-1.7-4.9-3.6-2.4-1.8-2.5-1.7-5-3.5-2.4-1.8-2-2.3-4.4-4.2-2.4-1.8-2.4-1.9-4.8-3.7s-2.8-1.3-5.2-3.1c-2.4-1.8-2-2.4-4.4-4.2-2.4-1.8-2.3-2-4.7-3.8-2.4-1.8-2.5-1.8-4.9-3.6-2.4-1.8-2.4-1.9-4.8-3.7-2.4-1.8-2.6-1.7-5-3.5s-2.5-1.6-5.1-3.3c-.2-.1 0 0-.2.1-2.3 1.9-2.2 2.1-4.5 3.9-2.4 1.8-2.5 1.7-4.8 3.5-2.4 1.8-2.6 1.5-5 3.3-2.4 1.8-2 2.3-4.4 4.1-2.4 1.8-2.5 1.7-4.8 3.5-2.4 1.8-2.4 1.8-4.7 3.6-2.4 1.8-2.7 1.3-5.1 3.1-2.4 1.8-2.3 1.9-4.7 3.7-2.4 1.8-2.3 1.8-4.7 3.6-2.4 1.8-2.1 2.1-4.5 3.9-2.4 1.8-2.4 1.8-4.7 3.6-2.4 1.8-2.5 1.7-4.8 3.5-2.4 1.8-2.6 1.6-4.9 3.4-2.4 1.8-2.1 2.2-4.4 4-2.4 1.8-2.2 2.1-4.5 3.9-2.4 1.8-2.8 1.2-5.2 3-2.4 1.8-2 2.3-4.4 4.1-2.4 1.8-2.7 1.4-5.1 3.2-2.4 1.8-2 2.3-4.4 4.1-2.4 1.8-2.2 2.1-5 3.2-1.7-1.1-3-2.5-4.6-3.7-1.6-1.1-3.4-2.1-5-3.3-1.6-1.2-3.1-2.3-4.6-3.5-.6-3 .2-3 .2-6s-.1-3-.1-6.1c0-3-.5-3-.5-6.1 0-3-.1-3-.1-6.1 0-3 .3-3 .3-6.1 0-3-.1-3-.1-6.1 0-3-.1-3-.1-6.1 0-3 .3-3 .3-6.1 0-3-.5-3-.5-6.1 0-3-.2-3-.2-6.1 0-3 .3-3 .3-6.1 0-3 .7-3 .7-6.1 0-3-.6-3-.6-6.1 0-3-.1-3-.1-6.1 0-3 .4-3 .4-6.1v-6.1c0-3-2.5-4.1-.3-6.1 2.5-2.2 3.4-.4 6.7-.4 3.3 0 3.3.2 6.7.2 3.3 0 4.5 2.8 6.9.5 2.3-2.2-.4-3.4-.4-6.6 0-3.2.1-3.2.1-6.3s2.2-4 .1-6.3c-1.9-2.1-2.8.4-5.7.4-2.9 0-2.9-.6-5.7-.6-2.9 0-2.9.4-5.7.4-2.9 0-2.9.1-5.7.1s-2.9.2-5.7.2c-2.9 0-2.9-.7-5.7-.7-2.9 0-2.9.5-5.7.5-2.9 0-2.9-.6-5.7-.6h-5.7c-2.9 0-2.9.4-5.7.4-2.9 0-3.6-2-5.5.2-2.1 2.3.1 3 .1 6.2v6.3c0 3.1-2.1 3.6 0 6.1 1.7 2 2.4.5 5 .5h5.3c2.7 0 3.9-2.6 5.7-.6 2 2.2.1 3.2.1 6.2v5.8c0 2.9-.5 2.9-.5 5.8s.4 2.9.4 5.8-.6 2.9-.6 5.8.4 2.9.4 5.8-.3 2.9-.3 5.8.4 2.9.4 5.8-.1 2.9-.1 5.8-.4 2.9-.4 5.8.2 2.9.2 5.8-.4 2.9-.4 5.9 1.3 3.1.5 5.9c-1.2-1.5-2.9-2.9-4.1-4.5-1.2-1.6-2.3-3.2-3.5-4.9-1.1-1.6-2.2-3.3-3.3-5-1.1-1.7-1.6-3.7-2.6-5.4-1-1.7-2.4-3.2-3.3-4.9-1-1.7-1.8-3.6-2.7-5.3-.9-1.8-2.1-3.4-3-5.2-.8-1.8-1-3.9-1.8-5.7-.8-1.8-2.1-3.4-2.8-5.3-.7-1.8-1.6-3.6-2.3-5.5-.7-1.9-.5-4-1.1-5.9-.6-1.9-1.6-3.6-2.2-5.6-.5-1.9-1.4-3.8-1.8-5.7-.5-1.9-.9-3.9-1.3-5.8s-.4-4-.7-5.9c-.3-2-.6-3.9-.9-5.9-.3-2-.7-3.9-.9-5.9-.2-2 .2-4 .1-6s-.3-3.9-.4-5.9c-.1-2-.7-4-.7-5.9 0-2 .6-4 .7-6 .1-2-.5-4-.3-6 .1-2 .2-4 .4-6s.6-4 .8-6c.3-2 1.4-3.8 1.7-5.8.3-2-.2-4.1.2-6.1s1.5-3.8 2-5.7c.5-1.9.7-4 1.2-5.9.5-1.9 1.4-3.8 2-5.7.6-1.9.8-4 1.5-5.8.7-1.9 1.4-3.8 2.1-5.6.7-1.9 1.5-3.7 2.3-5.6.8-1.8 1.5-3.7 2.3-5.6.9-1.8 1.9-3.6 2.8-5.3.9-1.8 2.4-3.3 3.4-5 1-1.7 1.9-3.5 3-5.2 1-1.7 2-3.4 3.1-5.1 1.1-1.7 2-3.5 3.2-5.1 1.2-1.6 2.6-3.1 3.8-4.7 1.2-1.6 2.3-3.3 3.6-4.8.8 2.8-.2 3-.2 5.9v5.9c0 3 .4 3 .4 5.9 0 3-.3 3-.3 5.9v5.9c0 3 .3 3 .3 5.9s-.6 3-.6 5.9c0 3 .1 3 .1 5.9 0 3 .7 3 .7 5.9 0 3-.4 3-.4 5.9 0 3 .2 3 .2 5.9 0 3-.1 3-.1 5.9s2.2 4 .2 6.2c-1.8 2-3-.2-5.6-.2-2.7 0-2.7-.1-5.3-.1-2.7 0-3.7-2.1-5.5-.1-2 2.4.2 3.3.2 6.4 0 3.2-.5 3.2-.5 6.3 0 3.2-2.1 4.3.1 6.6 1.9 2.1 3.2-.4 6-.4h5.7c2.9 0 2.9.5 5.7.5 2.9 0 2.9-.1 5.7-.1 2.9 0 2.9-.1 5.7-.1 2.9 0 2.9-.1 5.7-.1h5.7c2.9 0 2.9.4 5.7.4 2.9 0 2.9-.4 5.7-.4h5.7c2.9 0 4.1 2.3 6 .2 2.1-2.3-.6-3.4-.6-6.6v-6.3c0-3.2 2.6-4 .3-6.2-2.4-2.3-3.2-.1-6.5-.1s-3.3.1-6.7.1c-3.3 0-4.1 2-6.5-.3-2.3-2.1-.2-2.9-.2-5.9 0-3 .2-3 .2-6.1 0-3-.1-3-.1-6.1 0-3 .1-3 .1-6.1v-6.1c0-3 .1-3 .1-6.1v-6.1-6.1c0-3-.1-3-.1-6.1 0-3 .3-3 .3-6.1 0-3-.7-3-.7-6.1 0-3 .8-3 .8-6.1 0-3.1-.8-3.1-.8-6.1 0-3 .5-3 .5-6.1 0-3.1.1-3.1.1-6.1 0-3.1-.6-3.1-.6-6.1 0-3.1.3-3 .9-6 1.5-1.2 2.8-2.1 4.4-3.3 1.6-1.2 3.1-2.3 4.7-3.4s3.1-2.9 4.7-4c2.8 1.1 2.5 1.8 4.9 3.6 2.4 1.8 2 2.3 4.4 4.1 2.4 1.8 2.8 1.3 5.2 3.1 2.4 1.8 1.8 2.5 4.2 4.3 2.4 1.8 2.6 1.6 4.9 3.4 2.4 1.8 2.5 1.6 4.9 3.4 2.4 1.8 2.2 2.1 4.5 3.9 2.4 1.8 2.5 1.7 4.9 3.5 2.4 1.8 2.5 1.6 4.9 3.4 2.4 1.8 2.4 1.8 4.7 3.6l4.8 3.6c2.4 1.8 2.2 2 4.6 3.8 2.4 1.8 2.1 2.2 4.5 4 2.4 1.8 2.4 1.7 4.8 3.5s2.4 1.8 4.7 3.6c2.4 1.8 2.3 1.9 4.7 3.7 2.4 1.8 2.9 1.1 5.3 2.9 2.4 1.8 1.9 2.4 4.3 4.2l4.8 3.6c2.4 1.8 2.5 1.7 4.8 3.5.2.2.1.2.3.1 2.5-1.6 2.3-1.9 4.7-3.7 2.4-1.8 2.5-1.7 4.9-3.6 2.4-1.8 2.7-1.4 5.1-3.2 2.4-1.8 2.3-2 4.7-3.8 2.4-1.8 2.4-1.9 4.8-3.7 2.4-1.8 2.3-1.9 4.7-3.8 2.4-1.8 2.3-2 4.7-3.8 2.4-1.8 2.3-1.9 4.7-3.8 2.4-1.8 2.5-1.7 4.9-3.5l4.8-3.6c2.4-1.8 2.5-1.7 4.9-3.6 2.4-1.8 2.2-2.1 4.6-4 2.4-1.8 2.9-1.1 5.3-3 2.4-1.8 2.3-2 4.7-3.8 2.4-1.8 2-2.4 4.4-4.2 2.4-1.8 2.9-1.2 5.3-3.1 2.4-1.8 2.3-2 4.7-3.8 2.4-1.8 2.5-1.8 4.9-3.6 2.4-1.8 2.6-1.6 5-3.4 2.4-1.8 1.8-2.8 4.6-3.9 1.6 1 3.3 1.8 4.9 2.9 1.6 1.1 2.8 2.7 4.3 3.8 1.5 1.1 3.1 2 4.6 3.2.6 3 .5 3 .5 6.1 0 3.1-.1 3.1-.1 6.1 0 3.1-.5 3.1-.5 6.1 0 3.1.3 3.1.3 6.1 0 3.1.4 3.1.4 6.1 0 3.1-.5 3.1-.5 6.1 0 3.1-.2 3.1-.2 6.1 0 3.1.2 3.1.2 6.1 0 3.1.4 3.1.4 6.1 0 3.1-.2 3.1-.2 6.1v6.1c0 3.1.2 3.1.2 6.1 0 3.1-.5 3.1-.5 6.1 0 3.1-.1 3.1-.1 6.1v6.1c0 3.1.3 3.1.3 6.1s1.8 3.7-.3 5.9c-2.1 2.1-2.7.1-5.7.1s-3-.2-6-.2-4.1-2-6.2.2c-2.2 2.3-.2 3.3-.2 6.5v6.3c0 3.2-1.9 4.2.2 6.5 1.9 2.1 3.1-.5 5.9-.5 2.9 0 2.9.3 5.7.3 2.9 0 2.9-.4 5.7-.4 2.9 0 2.9.7 5.7.7 2.9 0 2.9-.4 5.7-.4 2.9 0 2.9.2 5.7.2 2.9 0 2.9.3 5.7.3 2.9 0 2.9-.6 5.7-.6 2.9 0 2.9.7 5.7.7 2.9 0 2.9-.3 5.7-.3 2.9 0 3.5 1.7 5.4-.4 2.1-2.3.2-2.9.2-6 0-3.2-.3-3.2-.3-6.3 0-3.2 2.3-3.8.1-6.1-2.1-2.2-2.8-.3-5.8-.3s-3-.4-6-.4-3.7 2.4-5.8.3c-2.1-2.1-.6-2.8-.6-5.8s.3-3 .3-6v-6c0-3 .3-3 .3-6s.2-3 .2-6v-6c0-3-.1-3-.1-6s-.4-3-.4-6-.1-3-.1-6 .3-3 .3-6 .4-3 .4-6-.1-3-.1-6-1.4-3.2-.6-6c1.3 1.6 2.7 3.2 3.9 4.8 1.2 1.6 2.1 3.4 3.3 5.1 1.2 1.6 2.4 3.2 3.5 4.9 1.1 1.7 2.1 3.5 3.1 5.2 1.1 1.7 2.7 3.1 3.7 4.9 1 1.8 2.1 3.5 3 5.3.9 1.8 1.2 3.9 2 5.8.9 1.8 2.2 3.4 3 5.3.8 1.8 1.4 3.8 2.2 5.7.7 1.9 1.1 3.9 1.8 5.8s1.3 3.8 1.9 5.7c.6 1.9 1.6 3.7 2.2 5.7.5 1.9.5 4 1 6s1.7 3.8 2.1 5.7c.4 2 .6 4 .9 6 .3 2 .9 3.9 1.2 5.9.3 2-.3 4.1-.1 6.1.2 2 1.2 3.9 1.3 6 .1 2 .2 4 .2 6.1.1 2-.1 4-.1 6.1 0 2-.4 4.1-.5 6.1-.1 2 .3 4.1.1 6.1-.1 2-.1 4.1-.3 6.1-.2 2-.6 4.1-.8 6.1-.3 2-.8 4-1.1 6-.3 2-1.2 3.9-1.6 5.9-.4 2-.9 4-1.4 5.9-.5 2-.9 4-1.5 5.9-.6 2-.7 4.1-1.3 6-.6 1.9-1.4 3.8-2.1 5.8-.7 1.9-1.2 3.9-2 5.8s-2.4 3.4-3.2 5.3c-.8 1.9-.8 4.1-1.7 5.9-.9 1.8-2.3 3.4-3.2 5.2-1 1.8-2.3 3.4-3.3 5.2-1 1.8-1.9 3.6-3 5.3-1.1 1.7-2.3 3.4-3.4 5.1-1.1 1.7-2.4 3.3-3.5 5-1.2 1.7-1.7 3.8-3 5.4-1.2 1.6-2.9 3-4.2 4.6-.8-2.9-.3-3.1-.3-6.1 0-3 .3-3 .3-6s-.3-3-.3-6 .2-3 .2-6 .3-3 .3-6-.5-3-.5-6 .1-3 .1-6 .4-3 .4-6 .3-3 .3-6-.3-3-.3-6 .1-3 .1-6-.2-3-.2-6-2.3-4.1-.1-6.3c2.1-2.1 3.2-.2 6.2-.2h6c3 0 3.9 2.5 5.9.3 2.2-2.3 0-3.1 0-6.3 0-3.2.2-3.2.2-6.3s1.9-3.8-.3-6.1c-2.2-2.2-2.9.1-6 .1s-3.1-.3-6.3-.3c-3.1 0-3.1-.5-6.3-.5-3.1 0-3.1.9-6.3.9-3.1 0-3.1-.8-6.3-.8-3.1 0-3.1.2-6.3.2-3.1 0-3.1-.3-6.3-.3h-6.3c-3.1 0-3.1.6-6.3.6-3.1 0-3.1-.5-6.3-.5.2.7-.1 1-.1 1.1zm-21.7 146.9c-1.8.8-3.6 1.6-5.4 2.3-1.8.7-3.6 1.7-5.4 2.3-1.9.6-3.8.9-5.7 1.5-1.9.6-3.6 1.8-5.5 2.3-1.9.5-3.9.8-5.8 1.2-1.9.5-3.8.8-5.8 1.2-1.9.4-3.9.6-5.8.9-1.9.3-3.9.7-5.8.9-1.9.3-3.9.8-5.8 1-1.9.2-3.9-.1-5.9 0-2 .1-3.9.5-5.9.6-2 .1-3.9-.2-5.9-.2-2 0-4-.1-6-.1-2-.1-4 .2-6 .1s-4-.4-6-.6c-2-.2-4-.2-6-.5s-3.8-1.4-5.8-1.8c-2-.3-4.1-.1-6-.5-2-.4-3.9-.8-5.9-1.3-2-.5-3.8-1.2-5.8-1.8-1.9-.5-3.7-1.5-5.7-2.1-1.9-.6-3.8-1.2-5.7-1.9-1.9-.7-3.8-1.3-5.6-2.1-1.9-.7-3.6-1-5.4-1.8 1.7-2.6 2-2.3 4.5-4.2 2.5-1.9 2.7-1.6 5.1-3.5 2.5-1.9 2.4-1.9 4.9-3.8 2.5-1.9 2.6-1.7 5-3.6 2.5-1.9 2.4-2 4.8-3.9 2.5-1.9 2.6-1.7 5-3.6 2.5-1.9 2.5-1.8 5-3.7 2.5-1.9 2.3-2.1 4.7-4 2.5-1.9 2.2-2.2 4.7-4.1 2.5-1.9 2.5-1.8 5-3.7 2.5-1.9 2.7-1.5 5.2-3.4s2.4-2 4.9-3.9c2.5-1.9 2.3-2.1 4.8-3.9 2.5-1.9 2-3.1 5.1-3.2 2.9-.1 2.1 1.7 4.4 3.5 2.3 1.8 2.7 1.2 5.1 3 2.3 1.8 1.9 2.3 4.3 4.1 2.3 1.8 2.2 1.9 4.6 3.7 2.3 1.8 2.4 1.7 4.7 3.5l4.6 3.6c2.3 1.8 2.5 1.6 4.8 3.4 2.3 1.8 2.6 1.4 5 3.2s2.1 2 4.5 3.8c2.3 1.8 2.5 1.5 4.9 3.3 2.3 1.8 2.2 1.9 4.6 3.7 2.3 1.8 2.1 2.1 4.5 3.8 2.3 1.8 2.7 1.3 5 3.1s2.3 1.9 4.6 3.7 2.3 1.9 4.7 3.5c.1.4-.4 0-.4 0zm-179-3.9c.2.1-.3 0-.1.1-.2.3 0 .5-.3.6-.4.2.3-.3.4-.7zm0-316.7c.1.1.2-.2.2 0-.1.1.1 0 .1.1-.2 0-.3-.1-.3-.1zm41-3.8c1.8-.8 3.4-1 5.3-1.7s3.6-1.7 5.5-2.4 3.9-1 5.8-1.6c1.9-.6 3.6-1.9 5.5-2.4s3.9-.8 5.9-1.3c1.9-.5 3.9-.9 5.8-1.3s3.9-.6 5.9-1c2-.3 3.9-.7 5.9-1 2-.3 3.9-.8 5.9-1 2-.2 4 .1 6-.1 2-.1 4-.6 6-.6 2-.1 4 .2 6 .2s4 .1 5.9.1c2 .1 4-.2 5.9-.1 2 .1 3.9.4 5.9.6 2 .2 4 .2 5.9.5 2 .3 3.8 1.4 5.7 1.7 2 .3 4 0 5.9.4 1.9.4 3.9.8 5.8 1.2 1.9.5 3.8 1.2 5.7 1.7 1.9.5 3.7 1.5 5.6 2 1.9.6 3.8 1.2 5.6 1.8 1.9.7 3.7 1.3 5.6 2 1.8.7 3.5 1 5.4 1.8-1.6 2.4-1.9 2.2-4.2 4-2.3 1.8-2.5 1.5-4.8 3.3l-4.6 3.6c-2.3 1.8-2.4 1.6-4.8 3.4-2.3 1.8-2.2 1.9-4.5 3.7-2.3 1.8-2.4 1.6-4.8 3.4-2.3 1.8-2.4 1.7-4.7 3.5-2.3 1.8-2.1 2-4.5 3.8-2.3 1.8-2.1 2.1-4.4 3.8-2.3 1.8-2.4 1.7-4.7 3.5-2.3 1.8-2.6 1.4-4.9 3.2-2.3 1.8-2.3 1.9-4.6 3.6-2.3 1.8-2.2 1.9-4.5 3.7-2.3 1.8-2.7 1.3-5 3-2.3 1.8-1.5 3.4-4.5 3.4-2.9 0-2.5-1.1-4.8-2.9-2.3-1.8-1.9-2.3-4.2-4-2.3-1.8-2.2-1.9-4.5-3.6-2.3-1.8-2.4-1.7-4.7-3.5l-4.6-3.6c-2.3-1.8-2.5-1.6-4.8-3.3-2.3-1.8-2.6-1.4-4.9-3.1-2.3-1.8-2.1-2-4.4-3.8-2.3-1.8-2.5-1.5-4.8-3.3-2.3-1.8-2.2-1.9-4.5-3.7-2.3-1.8-2.1-2-4.4-3.8-2.3-1.8-2.6-1.3-5-3.1-2.3-1.8-2.2-1.9-4.5-3.6-2.3-1.8-2.2-1.9-4.6-3.5-2.4-1.3-2.6-1.1-4.2-3.6zm178.9 3.9v-.1-.4c0 .2-.1.5 0 .5zm-8-29c-1.5 2.4-2 1.7-4.2 3.4s-2 1.9-4.2 3.6c-2.2 1.7-2.4 1.4-4.6 3.1-2.2 1.7-1.5 2.9-4.1 4-1.7-.8-3.7-1.9-5.5-2.7-1.8-.8-3.5-1.6-5.3-2.3-1.8-.7-3.5-1.6-5.4-2.3-1.8-.7-3.7-1.3-5.5-1.9-1.8-.6-3.8-.9-5.6-1.5-1.8-.6-3.6-1.5-5.4-2.1-1.9-.5-3.8-.7-5.7-1.2-1.9-.5-3.7-1.2-5.6-1.6l-5.7-1.2c-1.9-.3-3.9-.3-5.8-.6s-3.8-.6-5.7-.8c-1.9-.2-3.9-.2-5.8-.4s-3.8-1.2-5.7-1.3c-1.9-.1-3.9.5-5.8.4-1.9-.1-3.9 0-5.8 0-2 0-3.9-.2-5.8-.2-2 .1-3.9-.3-5.9-.1-2 .1-3.9.3-5.8.5s-3.9.4-5.8.6c-1.9.2-3.9.5-5.8.8-1.9.3-3.7 1.3-5.7 1.6-1.9.4-3.9.4-5.8.8s-3.8.9-5.7 1.4c-1.9.5-3.8.8-5.7 1.3-1.9.5-3.7 1.2-5.6 1.8-1.9.6-3.8 1-5.6 1.7-1.8.6-3.7 1.2-5.5 1.9-1.8.7-3.5 1.7-5.3 2.5-1.8.8-3.4 1.9-5.2 2.7-1.8.8-3.9 1.6-5.6 2.4-2.6-1-2-2.1-4.2-3.8-2.2-1.7-2.3-1.6-4.5-3.3-2.2-1.7-2.3-1.5-4.6-3.2-2.2-1.7-2.5-1.4-4-3.8 1.7-1 3.4-1.4 5.1-2.3 1.8-.9 3.2-2.4 5-3.2 1.8-.9 3.9-1.1 5.7-1.9 1.8-.8 3.7-1.4 5.5-2.2 1.8-.8 3.6-1.5 5.5-2.3 1.8-.7 3.7-1.3 5.6-2 1.9-.6 3.7-1.5 5.5-2.1 1.9-.6 3.6-1.6 5.5-2.2 1.9-.5 3.9-.7 5.8-1.2s3.8-1.3 5.7-1.7c1.9-.4 3.9-.7 5.8-1.1 1.9-.4 3.9-.4 5.9-.7 1.9-.3 3.8-1.2 5.8-1.5 2-.3 3.9-.4 5.9-.6 2-.2 3.9-.4 5.9-.6 2-.2 4 .3 6 .2 2-.1 3.9-.3 5.9-.3 2-.1 3.9-.1 5.9-.1 2 0 3.9-.3 5.9-.3 2 .1 3.9.1 5.9.2 2 .1 3.9.4 5.9.6 2 .2 3.9.7 5.8.9 2 .2 4-.1 5.9.2 2 .3 4 .2 5.9.5 1.9.3 3.8 1.4 5.7 1.8 1.9.4 4 .2 5.9.6 1.9.4 3.7 1.4 5.6 1.9 1.9.5 4 .4 5.9.9 1.9.5 3.7 1.6 5.5 2.1 1.9.6 3.6 1.6 5.5 2.2 1.9.6 3.8 1.1 5.6 1.8 1.8.7 3.7 1.4 5.5 2.2 1.8.7 3.6 1.6 5.4 2.4 1.8.8 3.6 1.5 5.4 2.4 1.8.8 3.8 1.2 5.5 2.1 1.7 1.2 3 2.1 4.7 3.1zM42.5 252.1c0-2-.1-4 0-6s-.2-4-.1-6 .6-4 .7-6c.2-2-.4-4.1-.1-6 .2-2 .7-4 1-5.9.3-2 .6-4 .9-5.9.3-2 .8-3.9 1.2-5.9.4-2 .7-3.9 1.2-5.9.4-2 .6-4 1.1-5.9.5-1.9 1.5-3.8 2-5.7.6-1.9.8-3.9 1.4-5.8.6-1.9 1.5-3.7 2.2-5.6.7-1.9 1.4-3.7 2.1-5.6.7-1.9 1.1-3.9 1.8-5.7.8-1.8 1.6-3.7 2.4-5.5.8-1.8 1.5-3.7 2.4-5.5.9-1.8 2.5-3.2 3.5-5 .9-1.8 1.3-3.8 2.3-5.6 1-1.7 1.9-3.5 3-5.2 1-1.7 2.3-3.3 3.3-5 1.1-1.7 2.5-3.1 3.6-4.8 1.1-1.7 2.2-3.3 3.4-4.9 1.2-1.6 2.3-3.2 3.5-4.8 1.2-1.6 2.4-3.2 3.6-4.7 1.3-1.6 2-3.5 3.3-5 1.3-1.5 2.9-2.8 4.2-4.3 1.3-1.5 2.6-3 4-4.4 1.4-1.4 2.9-2.7 4.3-4.2 1.4-1.4 2.7-2.9 4.2-4.3s3.1-2.6 4.5-3.9c1.5-1.3 2.8-2.6 4.3-3.9.9 2.6.3 2.7.3 5.4s.4 2.7.4 5.5c0 2.7-.1 2.7-.1 5.5 0 2.7-.4 2.7-.4 5.5 0 2.7.7 2.8.1 5.5-1.4 1.4-2.7 3.1-4 4.5-1.4 1.5-3.2 2.5-4.5 4.1-1.3 1.5-2.6 3-3.9 4.6-1.3 1.6-2 3.5-3.2 5.1-1.2 1.6-3 2.8-4.1 4.4-1.2 1.6-2.5 3.2-3.6 4.9-1.1 1.7-2.2 3.4-3.2 5.1-1.1 1.7-2.2 3.4-3.2 5.1-1 1.7-1.8 3.6-2.8 5.4-1 1.8-1.5 3.8-2.4 5.6-.9 1.8-2.1 3.4-2.9 5.3-.9 1.8-1.4 3.8-2.2 5.6-.8 1.8-1.7 3.6-2.5 5.5-.7 1.9-1.8 3.6-2.5 5.5s-.8 4-1.4 5.9c-.6 1.9-1.3 3.8-1.9 5.7-.6 1.9-1.1 3.9-1.6 5.8s-1.6 3.8-2 5.7c-.4 2-.8 4-1.1 5.9-.4 2-.7 4-1 6-.3 2-.2 4-.5 6l-.6 6c-.2 2-.5 4-.6 6-.1 2-.5 4-.6 6-.1 2 .4 4 .4 6s.4 4 .5 6c.1 2-.6 4-.5 6 .1 2 .9 3.9 1.1 5.9.2 2-.2 4 .1 6 .2 2 1.2 3.9 1.5 5.8.3 2 .2 4 .5 6 .4 2 .4 4 .8 6s1.1 3.8 1.6 5.8c.5 1.9 1 3.9 1.5 5.8.6 1.9 1 3.9 1.6 5.8.6 1.9 1.4 3.8 2 5.6.7 1.9 1.9 3.6 2.6 5.4.7 1.9 1.6 3.7 2.4 5.5.8 1.8 1.3 3.8 2.2 5.6.8 1.8 1.8 3.6 2.7 5.4.9 1.8 1.9 3.5 2.8 5.3 1 1.8 1.6 3.7 2.6 5.4 1 1.7 2.4 3.2 3.5 4.9 1.1 1.7 2.3 3.2 3.4 4.9 1.1 1.7 2 3.5 3.2 5.1 1.2 1.6 1.8 3.6 3 5.2s3 2.8 4.2 4.3l3.9 4.5c1.3 1.5 2.3 3.3 3.7 4.8 1.4 1.5 2.7 2.8 4.1 4.2.5 2.7.3 2.7.3 5.4s.4 2.7.4 5.5c0 2.7-.2 2.7-.2 5.5 0 2.7-.6 2.7-.6 5.5 0 2.7 1.4 3 .5 5.5-1.5-1.3-3.2-2.6-4.7-3.9-1.5-1.3-2.9-2.7-4.4-4.1-1.4-1.4-3.1-2.5-4.5-3.9s-2.3-3.3-3.7-4.7c-1.4-1.4-3-2.7-4.3-4.2-1.3-1.5-2.7-2.9-4-4.5-1.3-1.5-2.7-3-3.9-4.5-1.2-1.6-1.9-3.6-3.1-5.2-1.2-1.6-2.8-2.9-3.9-4.5s-1.8-3.6-2.9-5.2c-1.1-1.7-2.2-3.3-3.2-5-1.1-1.7-2.5-3.2-3.5-4.9-1-1.7-2.2-3.3-3.2-5.1-1-1.7-2-3.5-2.9-5.2-.9-1.8-1.8-3.5-2.7-5.3-.9-1.8-1.8-3.6-2.6-5.4-.8-1.8-1-3.9-1.7-5.7-.8-1.8-1.5-3.7-2.2-5.5-.7-1.9-2.1-3.5-2.8-5.3-.7-1.9-1.2-3.8-1.8-5.7l-1.8-5.7c-.5-1.9-.6-4-1.1-5.9-.5-1.9-1.3-3.8-1.8-5.7-.4-1.9-.3-4-.7-6-.4-1.9-1.1-3.8-1.4-5.8-.3-2-.4-4-.6-5.9-.3-2-.9-3.9-1.1-5.9-.2-2-.4-4-.5-5.9-.2-2 .1-4 0-6s-.4-4-.4-5.9c-.1-2.3.4-4.3.4-6.3zm110.1 187.1c2.2-1.7 2.1-1.8 4.3-3.5 2.2-1.7 2-1.9 4.2-3.6 2.2-1.7 2.4-1.4 4.6-3.1 2.2-1.7 1.5-3 4.1-4 1.8.9 3.7 1.9 5.5 2.7l5.4 2.4c1.8.8 3.6 1.6 5.4 2.3 1.8.7 3.7 1.3 5.5 2 1.8.6 3.8 1 5.7 1.6 1.9.6 3.6 1.6 5.5 2.1s3.9.7 5.8 1.2 3.7 1.2 5.7 1.6c1.9.4 3.8.8 5.8 1.2 1.9.4 3.9.3 5.9.6 1.9.3 3.9.6 5.8.9 1.9.2 3.9.2 5.9.4 1.9.2 3.8 1.2 5.8 1.3 2 .1 3.9-.5 5.9-.4 2 .1 3.9 0 5.9 0 2.1 0 4.1.2 6.2.2 2.1-.1 4.2.2 6.2.1 2.1-.1 4.1-.3 6.2-.5 2.1-.2 4.1-.5 6.2-.7 2.1-.3 4.1-.6 6.1-.9 2-.3 4-1.3 6-1.7 2-.4 4.1-.5 6.1-1l6-1.5c2-.5 4-.9 6-1.5s3.9-1.4 5.9-2c2-.7 4-1.2 5.9-1.9 1.9-.7 3.9-1.4 5.8-2.1 1.9-.8 3.7-1.9 5.6-2.7 1.9-.8 4-2 5.9-2.9 2.6 1 2.3 1.8 4.5 3.5s1.9 2 4.2 3.7c2.2 1.7 2.3 1.6 4.5 3.3s3.2.9 4.6 3.3c-1.7.9-3.9 1.7-5.6 2.6-1.7.9-3.5 1.7-5.3 2.6-1.8.8-3.3 2.3-5.1 3.1-1.8.8-3.9.9-5.7 1.7-1.8.7-3.7 1.3-5.5 2-1.8.7-3.6 1.4-5.5 2.1-1.8.6-3.7 1.2-5.6 1.8-1.9.6-3.7 1.4-5.6 1.9-1.9.5-3.6 1.5-5.6 2-1.9.5-3.9.6-5.8 1s-3.8 1.2-5.7 1.5c-1.9.4-3.9.5-5.8.9-1.9.3-3.9.3-5.9.5-1.9.3-3.8 1.1-5.8 1.3-1.9.2-3.9.3-5.9.4-1.9.2-3.9.3-5.9.4-2 .1-3.9-.4-5.9-.4-2 .1-3.9.2-5.9.2h-6c-2-.1-4 .2-6 .1s-4-.2-6-.4-3.9-.5-5.9-.7c-2-.2-3.9-.8-5.9-1-2-.3-4-.1-6-.4-2-.3-4-.3-5.9-.7-2-.4-3.7-1.5-5.7-2-1.9-.4-4-.3-5.9-.8-1.9-.5-3.7-1.5-5.6-2.1-1.9-.5-4-.5-5.9-1.1-1.9-.6-3.6-1.7-5.5-2.3-1.9-.7-3.6-1.7-5.5-2.4s-3.8-1.2-5.6-2c-1.8-.8-3.6-1.6-5.5-2.4-1.8-.8-3.5-1.8-5.3-2.6-1.8-.9-3.6-1.7-5.4-2.6-1.8-.9-3.7-1.4-5.5-2.3 0-.6.6-.3.6-.3zm238.7-23c-1-2.5-.1-2.5-.1-5.3 0-2.7-.3-2.7-.3-5.4s.3-2.7.3-5.4-.7-2.7-.7-5.4-.3-2.8.2-5.5c1.4-1.4 2.9-2.9 4.3-4.4 1.4-1.5 2.9-2.9 4.2-4.4 1.4-1.5 2.6-3.1 3.9-4.7 1.3-1.6 2.3-3.3 3.6-4.9 1.3-1.6 2.8-2.9 4-4.6 1.2-1.6 2.1-3.5 3.3-5.2 1.1-1.7 2.5-3.2 3.6-4.9 1.1-1.7 2.2-3.4 3.3-5.2 1-1.7 1.7-3.7 2.7-5.5 1-1.8 2-3.5 2.9-5.3.9-1.8 1.6-3.7 2.5-5.5.9-1.8 2.5-3.3 3.3-5.2.8-1.9 1-4 1.7-5.9.8-1.9 1.4-3.8 2.1-5.7.7-1.9 1.6-3.7 2.2-5.7.6-1.9 1.6-3.8 2.2-5.7.6-1.9 1.1-3.9 1.6-5.9.5-2 1-4 1.4-5.9l1.2-6c.4-2 .1-4.1.4-6.1.3-2 .9-4 1.2-6 .3-2 .4-4 .6-6.1.2-2 .5-4 .7-6.1.1-2 0-4.1.1-6.1s.3-4.1.3-6.1.1-4.1 0-6.1-.5-4-.6-6c-.1-2-.7-4-.8-6-.2-2-.3-4-.6-6s-.1-4.1-.4-6.1c-.3-2-.8-4-1.1-6-.4-2-1-3.9-1.4-5.9-.4-2-.3-4.1-.8-6-.5-2-1-3.9-1.6-5.9-.6-1.9-1.8-3.7-2.4-5.6-.6-1.9-.7-4.1-1.3-5.9-.7-1.9-1.3-3.9-2-5.7-.7-1.9-1.6-3.7-2.4-5.6-.8-1.9-1.6-3.7-2.4-5.6-.9-1.8-2-3.6-2.9-5.3-.9-1.8-2.3-3.4-3.3-5.1-1-1.8-1.7-3.7-2.7-5.4-1-1.7-2.4-3.3-3.5-5-1.1-1.7-2-3.5-3.2-5.2-1.1-1.7-2-3.5-3.2-5.2-1.2-1.6-2.9-2.9-4.1-4.5-1.2-1.6-2.4-3.3-3.7-4.8-1.3-1.6-2.6-3.1-3.9-4.6-1.3-1.5-2.2-3.4-3.6-4.9-1.4-1.5-2.8-2.7-4.2-4.1-.6-2.7 0-2.7 0-5.4s-.4-2.7-.4-5.5v-5.5c0-2.7.2-2.7.2-5.5 0-2.7-.7-2.7.3-5.3 1.5 1.3 2.7 2.4 4.2 3.7 1.5 1.3 3.2 2.4 4.7 3.8s2.4 3.3 3.8 4.7c1.4 1.4 3.3 2.4 4.7 3.9 1.4 1.5 2.3 3.3 3.7 4.8 1.3 1.5 3.2 2.6 4.5 4.1 1.3 1.5 2.2 3.4 3.5 4.9 1.3 1.6 2.2 3.4 3.4 5 1.2 1.6 2.6 3.1 3.8 4.7 1.2 1.6 2.3 3.3 3.4 5 1.1 1.7 2.1 3.4 3.2 5.1 1.1 1.7 2.2 3.3 3.2 5.1 1 1.7 2.5 3.2 3.5 5 1 1.8 2 3.5 3 5.3.9 1.8 1.6 3.7 2.4 5.5.9 1.8 1.8 3.6 2.6 5.4.8 1.8 1.7 3.7 2.5 5.5.8 1.8 1.2 3.8 1.9 5.7.7 1.9 1.8 3.6 2.5 5.5s1.5 3.7 2.1 5.7c.6 1.9.9 3.9 1.5 5.9.6 1.9.4 4 .9 6 .5 1.9 1.6 3.7 2.1 5.7.4 2 .9 3.9 1.3 5.9.4 2 .3 4 .7 6 .3 2 .7 3.9.9 5.9.3 2 .8 3.9 1 5.9.2 2 .8 4 1 6 .2 2 .1 4 .3 6 .1 2-.4 4-.4 6 .1 2 .6 4 .6 6s-.1 4-.2 6.1l-.3 6c-.1 2 .1 4.1 0 6.1-.2 2-1 4-1.2 6-.2 2-.1 4.1-.4 6-.3 2-.5 4-.9 6-.3 2-.6 4-1 6s-1.5 3.8-2 5.8-.4 4-.9 6-1.6 3.7-2.2 5.7c-.6 1.9-1.1 3.9-1.8 5.8-.6 1.9-.9 4-1.5 5.9-.7 1.9-1.1 3.9-1.9 5.8-.7 1.9-1.4 3.8-2.2 5.6-.8 1.9-1.6 3.7-2.4 5.6-.8 1.8-1.6 3.7-2.5 5.5-.9 1.8-2.4 3.3-3.3 5.1-.9 1.8-1.9 3.5-2.9 5.3-1 1.8-1.3 3.9-2.4 5.6-1 1.7-2.2 3.4-3.3 5.1l-3.3 5.1c-1.1 1.7-2.7 3-3.9 4.7-1.2 1.6-2.1 3.5-3.3 5.1-1.2 1.6-2.9 2.8-4.2 4.4-1.3 1.6-2.3 3.4-3.6 4.9-1.3 1.5-2.8 2.9-4.2 4.4-1.4 1.5-2.5 3.2-3.9 4.7s-2.9 2.8-4.3 4.3c-1.4 1.4-3.2 2.5-4.6 3.9-1.5 1.4-2.8 2.9-4.4 4.2-1.5 1-2.6 2.2-4.2 3.4z"/>
  <path d="M188.5 210.9c1.7 2 2.4.3 5.1.3 2.7 0 2.7.3 5.3.3 2.7 0 2.7-.5 5.4-.5s3.2-1.6 5 .4c2 2.3.4 2.7.4 5.8 0 3-.4 3-.4 6.1 0 3 .2 3 .2 6.1 0 3-.4 3-.4 6.1 0 3 .7 3 .7 6.1 0 3-.2 3-.2 6.1 0 3-.2 3-.2 6.1v6.1c0 3-.1 3-.1 6.1v6.1c0 3 .8 3 .8 6.1v6.1c0 3-.1 3-.1 6.1 0 3 1.6 3.7-.4 6-1.8 2-2.6.5-5.3.5-2.7 0-2.7-.2-5.3-.2-2.7 0-2.7-.2-5.4-.2s-3.6-2.1-5.4 0c-2 2.4-.1 3.2-.1 6.3 0 3.2-.2 3.2-.2 6.3 0 3.2-1.5 3.7.7 6 2.2 2.2 2.8.7 5.8.7 3.1 0 3.1-.4 6.2-.4s3.1.1 6.2.1 3.1-.3 6.2-.3 3.1.3 6.2.3 3.1-.2 6.2-.2h6.2c3.1 0 3.1.2 6.2.2s3.1-.6 6.2-.6 3.9 2.5 6.1.3c2.2-2.2-.1-3.1-.1-6.2v-6.3c0-3.2 2.5-4.1.4-6.5-1.7-2-2.9.4-5.6.4-2.7 0-2.7.1-5.3.1-2.7 0-2.7-.2-5.4-.2s-3.3 1.7-5.1-.3c-2-2.3-.4-2.8-.4-5.8s-.2-3-.2-6.1c0-3 .6-3 .6-6.1 0-3-.5-3-.5-6.1 0-3 .7-3 .7-6.1 0-3-.5-3-.5-6.1 0-3 .6-3 .6-6.1 0-3-.7-3-.7-6.1 0-3 .2-3 .2-6.1 0-3-.1-3-.1-6.1 0-3-.3-3-.3-6.1 0-3 .4-3 .4-6.1 0-3 .2-3 .2-6.1 0-3-2-3.7 0-5.9 1.8-2 2.5.3 5.2.3s2.7-.9 5.3-.9c2.7 0 2.7.6 5.4.6s3.3 1.7 5.1-.4c2-2.4.4-2.9.4-6.1 0-3.2-.3-3.2-.3-6.3 0-3.2 2.7-4.3.5-6.6-2.2-2.2-3.4.1-6.4.1-3.1 0-3.1.3-6.2.3s-3.1-.4-6.2-.4-3.1.4-6.2.4-3.1-.3-6.2-.3-3.1.1-6.2.1-3.1.2-6.2.2-3.1.2-6.2.2-3.1-.6-6.2-.6-3.7-1.6-5.9.6-.5 2.8-.5 6 .6 3.2.1 6.3c-.6 3.1-1.8 3.7.2 6.1zm113.8 39.4c-2.1 0-4.1-.2-6 .4-2 .5-4 1.1-5.7 2.1-1.7 1.1-3.1 2.7-4.5 4.2-.8-3.4 2.7-4.7.4-7.3-2.1-2.3-3.5.4-6.6.4-3.2 0-3.2-.4-6.3-.4-3.2 0-4.1-1.9-6.4.2-2.2 2-.4 3-.4 6 0 2.9.7 2.9.7 5.9 0 2.9-.2 2.9-.2 5.9 0 2.9-.2 2.9-.2 5.9v5.9c0 2.9-.1 2.9-.1 5.9v5.9c0 2.9.8 2.9.8 5.9v5.9c0 2.9-.1 2.9-.1 5.9 0 2.9-2.5 3.9-.4 6 2.3 2.2 3.2-.5 6.3-.5 3.2 0 3.2.2 6.3.2 3.2 0 4.1 2.5 6.3.2 2.3-2.3 0-3.2 0-6.5 0-3.2.1-3.2.1-6.5 0-3.2.2-3.2.2-6.5 0-3.2-.8-3.2-.8-6.5 0-3.2.9-3.2.9-6.5 0-2.6.7-5 2.4-6.7 1.7-1.7 4.1-2.6 6.7-2.6s5.1.8 6.8 2.5c1.7 1.7 2.5 4.2 2.5 6.8 0 3.2.2 3.2.2 6.5v6.5c0 3.2-.2 3.2-.2 6.5 0 3.2.6 3.2.6 6.5 0 3.2-2.6 4.1-.3 6.4 2.2 2.3 3.1-.1 6.2-.1h6.3c3.2 0 4.3 2.6 6.6.4 2.2-2.2-.4-3.3-.4-6.4 0-3.1-.1-3.1-.1-6.2s.2-3.1.2-6.2.4-3.1.4-6.2-.5-3.1-.5-6.2-.2-3.1-.2-6.2.6-3.1.6-6.2c0-1.9-.8-3.8-1.2-5.6-.5-1.9-.6-3.9-1.6-5.5s-2.6-2.8-3.9-4.2c-1.3-1.3-2.5-3-4.2-3.9-1.6-.9-3.7-1-5.5-1.5-1.8-.5-3.6-.9-5.6-.9-.3.1-.1.4-.1.4z"/>
</svg>
